:SAMPLES-PER-SECOND 30
:FULLY-SPECIFIED
:DEGREES
473
root  -27.7222 39.7846 29.4187 -174.633 -58.8601 165.395
RightUpLeg  -3.51276 0.566948 -11.2928
RightLeg  60.3692 -2.71528 -5.61373
RightFoot  9.32072 -0.489087 3.00116
RightToes  -4.65663e-010 0 -3.6325e-017
Spine  5.84906 2.28199 3.59325
Spine1  9.44135 5.10851 -10.1822
HEad  -12.9881 -0.571369 -1.71632
LeftShoulder1  9.35462 -12.7154 -50.346
LeftArm  -6.97508 17.9687 -19.7774
LeftForeArm  27.0895 -7.21503 -5.93875
LeftHand  -0.244104 0.0205437 5.32207
RightShoulder  7.00155 10.9534 42.1536
RightArm  -4.84824 2.64893 37.5374
RightForeArm  21.6724 1.06876 6.51828
RightHand  -0.872143 1.81748 -14.1807
LeftUpLeg  -7.40979 15.5577 -2.18297
LeftLeg  17.8396 3.63074 0.766403
LeftFoot  -1.61409 0.0980294 -1.04408
LeftToes  -7.27628e-011 -1.6005e-012 -1.37987e-011
474
root  -28.8381 40.127 29.1085 -176.65 -57.8444 167.365
RightUpLeg  -7.91766 -1.60647 -9.82904
RightLeg  61.7829 -3.65235 -7.86865
RightFoot  6.35891 -0.246031 1.87451
RightToes  -4.65663e-010 0 -3.6325e-017
Spine  6.39401 1.42772 3.11032
Spine1  9.3602 3.82918 -8.43532
HEad  -13.0602 0.429804 -1.73099
LeftShoulder1  9.21046 -12.5987 -49.9315
LeftArm  -8.1152 12.8131 -17.8245
LeftForeArm  25.3456 -7.97076 -5.86022
LeftHand  -0.244104 0.0205437 5.32207
RightShoulder  6.99986 10.8737 42.3911
RightArm  -4.04439 0.592921 36.9533
RightForeArm  22.077 1.9003 6.68631
RightHand  -0.906379 1.76084 -14.8311
LeftUpLeg  -3.7269 15.0768 -0.662838
LeftLeg  15.6795 5.29945 0.13129
LeftFoot  -2.8984 0.105828 -1.19034
LeftToes  -7.27628e-011 -1.6005e-012 -1.37987e-011
475
root  -29.8997 40.3394 28.7625 -177.89 -57.1655 168.728
RightUpLeg  -11.6992 -4.7375 -8.33122
RightLeg  59.9099 -4.17471 -8.24875
RightFoot  4.06993 -0.155444 1.35346
RightToes  -4.65663e-010 0 -3.6325e-017
Spine  6.73583 0.550253 2.04044
Spine1  9.2886 2.3421 -6.65321
HEad  -12.8328 1.20038 -1.50174
LeftShoulder1  9.01107 -12.4838 -49.2038
LeftArm  -9.84633 8.14737 -15.8874
LeftForeArm  23.4151 -9.00024 -5.57466
LeftHand  -0.244104 0.0205437 5.32207
RightShoulder  6.7503 10.5478 41.7873
RightArm  -2.30935 -2.45383 36.587
RightForeArm  19.6681 5.01783 7.39701
RightHand  -0.95148 2.05723 -14.9636
LeftUpLeg  -0.632652 13.1875 0.490143
LeftLeg  13.8439 7.97523 -0.798118
LeftFoot  -3.97766 0.0955585 -1.08481
LeftToes  -7.27628e-011 -1.6005e-012 -1.37987e-011
476
root  -30.9518 40.4827 28.3781 -178.503 -56.4064 169.402
RightUpLeg  -14.6783 -7.98457 -6.79879
RightLeg  55.1414 -5.04199 -8.13354
RightFoot  2.62715 -0.0232726 0.332565
RightToes  -4.65663e-010 0 -3.6325e-017
Spine  7.12153 -0.242775 0.567784
Spine1  8.95675 0.866581 -4.81588
HEad  -12.2962 1.73205 -1.37924
LeftShoulder1  8.84416 -12.3927 -48.5667
LeftArm  -11.7104 4.17127 -13.6158
LeftForeArm  21.4367 -10.4251 -5.19663
LeftHand  -0.244104 0.0205437 5.32207
RightShoulder  6.48912 10.2533 40.975
RightArm  0.449601 -5.71067 35.9008
RightForeArm  16.133 8.88321 7.97283
RightHand  -0.950284 2.3283 -14.4397
LeftUpLeg  2.25723 10.1941 1.0246
LeftLeg  12.0056 11.6256 -1.87057
LeftFoot  -4.61086 0.0772714 -0.844179
LeftToes  -7.27628e-011 -1.6005e-012 -1.37987e-011
477
root  -31.9918 40.5717 27.9498 -178.817 -55.3649 169.623
RightUpLeg  -16.4782 -11.2236 -5.18628
RightLeg  47.5201 -6.48878 -7.84919
RightFoot  0.643203 0.0343029 -0.27243
RightToes  -4.65663e-010 0 -3.6325e-017
Spine  7.78596 -0.863145 -0.812576
Spine1  8.25292 -0.321454 -3.27676
HEad  -11.7159 1.92828 -1.33127
LeftShoulder1  8.70551 -12.3157 -48.0328
LeftArm  -13.1241 0.618238 -10.9115
LeftForeArm  19.3899 -11.9183 -4.93026
LeftHand  -0.244104 0.0205437 5.32207
RightShoulder  6.35577 10.0938 40.5717
RightArm  5.2421 -8.87195 34.6925
RightForeArm  11.5001 12.9795 7.5866
RightHand  -0.963057 2.5559 -14.2259
LeftUpLeg  5.20602 7.82508 1.0495
LeftLeg  10.1382 14.8714 -2.82539
LeftFoot  -5.47328 0.0899342 -1.12757
LeftToes  -7.27628e-011 -1.6005e-012 -1.37987e-011
478
root  -33.0307 40.5119 27.4541 -178.583 -53.922 169.149
RightUpLeg  -17.2372 -15.4006 -3.63854
RightLeg  37.6021 -7.70707 -6.59096
RightFoot  -1.22885 0.0245852 -0.376429
RightToes  -4.65663e-010 0 -3.6325e-017
Spine  8.43459 -1.22335 -2.18785
Spine1  7.45927 -1.04936 -2.47706
HEad  -11.3602 1.71423 -1.17554
LeftShoulder1  8.52541 -12.2422 -47.2459
LeftArm  -14.2549 -2.56593 -8.25186
LeftForeArm  17.7204 -13.4923 -4.7001
LeftHand  -0.244104 0.0205437 5.32207
RightShoulder  6.2359 9.91709 40.3083
RightArm  9.60289 -11.7538 33.4806
RightForeArm  7.70655 16.3085 6.61284
RightHand  -1.01593 2.77046 -14.6117
LeftUpLeg  7.85885 6.86746 0.512759
LeftLeg  9.1384 17.2166 -3.34925
LeftFoot  -6.96715 0.110645 -1.79776
LeftToes  -7.27628e-011 -1.6005e-012 -1.37987e-011
479
root  -34.1017 40.349 26.8774 -177.882 -52.2361 168.246
RightUpLeg  -17.6766 -22.6534 -1.31248
RightLeg  26.3007 -6.85842 -4.40522
RightFoot  -1.61778 0.0679266 -0.922327
RightToes  -4.65663e-010 0 -3.6325e-017
Spine  8.4569 -1.46349 -3.52205
Spine1  7.05067 -1.51094 -1.96735
HEad  -11.2414 1.16976 -0.972919
LeftShoulder1  8.3044 -12.1365 -46.3105
LeftArm  -15.7389 -5.01094 -5.94006
LeftForeArm  17.0055 -15.72 -4.27779
LeftHand  -0.244104 0.0205437 5.32207
RightShoulder  6.0443 9.66562 39.7705
RightArm  11.2444 -13.9915 32.7044
RightForeArm  6.13971 17.6901 6.11007
RightHand  -1.04536 2.82549 -14.9287
LeftUpLeg  10.2932 6.72285 -0.476889
LeftLeg  8.49531 19.0222 -3.50432
LeftFoot  -8.3493 0.110661 -2.2923
LeftToes  -7.27628e-011 -1.6005e-012 -1.37987e-011
480
root  -35.1858 40.1873 26.2258 -177.077 -50.6181 167.481
RightUpLeg  -17.081 -26.7208 0.189479
RightLeg  13.7518 -10.0043 -0.365346
RightFoot  -1.21798 0.0652299 -0.843597
RightToes  -4.65663e-010 0 -3.6325e-017
Spine  7.72902 -1.70847 -4.60229
Spine1  7.18554 -1.96426 -1.10622
HEad  -11.2392 0.339185 -0.946718
LeftShoulder1  8.13508 -12.0019 -45.7429
LeftArm  -18.0115 -6.56188 -3.83534
LeftForeArm  17.438 -18.7469 -3.82634
LeftHand  -0.244104 0.0205437 5.32207
RightShoulder  5.88275 9.48397 39.1991
RightArm  9.37857 -15.5188 32.0958
RightForeArm  7.10462 16.6756 6.42437
RightHand  -1.03152 2.7787 -14.8163
LeftUpLeg  12.726 6.48411 -1.50979
LeftLeg  7.36245 20.6198 -3.74068
LeftFoot  -9.41437 0.109089 -3.16533
LeftToes  -7.27628e-011 -1.6005e-012 -1.37987e-011
